<?xml version="1.0" encoding="UTF-8" ?>
<!DOCTYPE svg PUBLIC "-//W3C//DTD SVG 1.1//EN" "http://www.w3.org/Graphics/SVG/1.1/DTD/svg11.dtd">
<svg width="234pt" height="69pt" viewBox="0 0 234 69" version="1.1" xmlns="http://www.w3.org/2000/svg">
<g id="#0aacdff2">
<path fill="#0aacdf" opacity="0.95" d=" M 24.87 19.32 C 25.83 18.62 26.77 17.91 27.71 17.18 C 28.68 23.45 33.05 28.35 37.02 33.00 C 39.95 36.49 43.54 39.31 46.90 42.36 C 47.74 43.36 48.79 44.15 49.96 44.75 L 50.95 45.40 C 51.39 45.88 52.28 46.86 52.72 47.34 L 51.50 47.56 L 50.28 47.13 C 47.85 45.69 45.37 44.33 42.80 43.15 C 39.34 41.27 35.98 39.14 32.96 36.60 C 30.37 34.14 27.79 31.67 25.30 29.11 C 23.37 27.16 22.64 24.43 21.94 21.86 C 22.37 21.50 23.22 20.78 23.64 20.42 C 24.60 27.12 30.07 31.79 35.02 35.82 C 31.10 31.62 26.99 27.34 24.84 21.92 C 24.85 21.27 24.86 19.97 24.87 19.32 Z" />
<path fill="#0aacdf" opacity="0.95" d=" M 50.68 21.32 C 52.05 21.05 52.81 21.66 52.96 23.14 C 52.12 24.16 51.28 24.03 50.43 22.75 C 50.49 22.39 50.62 21.68 50.68 21.32 Z" />
</g>
<g id="#959da2ff">
<path fill="#959da2" opacity="1.00" d=" M 40.04 18.13 C 43.66 18.95 47.07 20.51 50.68 21.32 C 50.62 21.68 50.49 22.39 50.43 22.75 C 49.79 22.76 48.50 22.78 47.86 22.79 C 48.43 23.38 49.57 24.55 50.14 25.14 C 49.85 25.36 49.27 25.79 48.99 26.01 C 47.66 21.81 43.87 19.68 40.04 18.13 Z" />
<path fill="#959da2" opacity="1.00" d=" M 53.15 19.05 C 56.35 19.12 59.95 19.33 62.31 21.80 C 64.62 22.66 66.72 23.94 68.09 26.06 C 66.61 24.75 64.97 23.63 63.31 22.55 C 63.75 23.75 64.23 24.95 64.73 26.13 C 63.02 23.70 60.59 21.28 57.38 21.49 L 57.75 20.30 C 56.18 20.25 54.61 20.14 53.05 20.00 L 53.15 19.05 Z" />
<path fill="#959da2" opacity="1.00" d=" M 38.91 28.99 C 39.71 25.43 43.51 24.63 46.59 24.12 C 46.76 24.54 47.10 25.38 47.27 25.80 L 45.58 25.67 C 43.58 25.31 41.52 25.64 40.38 27.48 C 40.01 27.86 39.28 28.61 38.91 28.99 Z" />
<path fill="#959da2" opacity="1.00" d=" M 189.14 27.48 C 189.76 26.18 190.34 24.22 192.17 24.43 C 194.89 23.95 196.44 26.59 198.68 27.52 C 203.12 27.59 207.56 27.61 212.01 27.76 C 211.67 28.07 210.99 28.68 210.65 28.98 C 210.65 31.46 210.70 33.94 210.56 36.42 C 208.43 33.95 211.99 27.93 207.26 28.31 C 207.00 30.80 207.82 33.30 207.37 35.76 C 207.06 33.16 207.12 30.54 207.18 27.94 C 206.89 28.11 206.30 28.47 206.01 28.64 L 205.42 28.56 C 200.48 27.44 195.37 28.12 190.39 27.22 L 190.09 28.03 C 189.95 30.78 190.04 33.53 189.92 36.28 C 189.60 33.89 190.40 31.22 188.89 29.13 L 188.19 28.75 C 187.33 28.36 186.43 28.23 185.47 28.35 L 184.80 28.38 C 183.73 28.43 182.67 28.47 181.60 28.53 L 180.28 28.59 C 180.10 31.11 180.61 33.77 179.66 36.17 C 179.85 33.10 180.06 30.04 180.41 26.98 C 181.77 27.69 183.38 27.62 184.81 27.19 L 184.95 26.72 L 185.33 25.45 L 185.53 24.78 C 185.50 25.51 185.43 26.97 185.39 27.70 C 186.33 27.64 188.21 27.53 189.14 27.48 M 191.40 26.63 C 192.29 27.26 194.27 27.49 194.86 26.37 C 194.17 25.44 191.17 24.98 191.40 26.63 Z" />
<path fill="#959da2" opacity="1.00" d=" M 51.85 25.11 C 54.43 24.69 53.64 28.57 51.70 28.47 C 51.52 27.34 51.57 26.21 51.85 25.11 Z" />
<path fill="#959da2" opacity="1.00" d=" M 86.18 27.46 C 89.60 27.49 93.01 27.50 96.42 27.73 C 97.06 27.88 98.33 28.18 98.97 28.33 C 98.14 29.02 97.96 30.17 98.37 31.13 L 98.53 31.80 C 99.63 33.14 100.81 34.51 101.07 36.29 C 99.71 35.23 98.52 33.98 97.29 32.78 C 97.76 31.28 97.79 29.19 96.18 28.36 C 95.49 28.32 94.11 28.23 93.42 28.18 C 93.13 28.15 92.54 28.08 92.25 28.05 L 90.57 27.88 C 90.64 28.68 90.78 30.29 90.84 31.10 L 90.36 30.47 C 90.19 30.23 89.85 29.76 89.68 29.52 L 89.09 28.66 C 88.34 28.67 86.84 28.69 86.09 28.70 C 86.12 28.39 86.16 27.77 86.18 27.46 Z" />
<path fill="#959da2" opacity="1.00" d=" M 110.11 27.73 C 116.74 27.11 123.38 28.09 130.01 27.53 C 126.81 29.53 129.68 33.80 127.48 36.22 C 127.42 34.59 127.41 32.96 127.45 31.33 C 125.88 31.34 124.31 31.36 122.74 31.47 C 124.07 31.15 125.29 30.59 126.40 29.80 C 126.51 29.71 126.73 29.54 126.84 29.45 C 127.31 29.10 128.25 28.39 128.72 28.03 C 127.09 28.04 125.46 28.06 123.84 28.10 C 123.84 28.59 123.85 29.57 123.86 30.06 L 123.75 29.41 L 123.60 28.47 C 121.51 28.53 119.43 28.56 117.34 28.58 L 117.04 30.88 C 118.03 30.71 120.02 30.38 121.01 30.21 C 121.09 32.26 121.74 34.66 120.37 36.43 C 120.25 34.67 120.19 32.91 120.18 31.15 C 119.16 31.76 118.13 32.34 117.08 32.89 C 115.93 31.65 116.29 29.87 116.06 28.35 C 112.61 29.56 113.39 34.88 116.34 36.41 C 111.96 36.99 112.82 31.26 113.34 28.60 L 112.06 28.63 C 111.54 28.64 110.49 28.66 109.96 28.67 C 109.43 28.68 108.37 28.69 107.83 28.70 C 107.92 31.26 108.05 33.83 107.90 36.39 L 107.28 35.49 C 107.10 33.93 107.04 32.36 106.96 30.80 C 105.62 30.75 104.29 30.70 102.95 30.65 C 103.14 31.28 103.52 32.55 103.71 33.18 L 103.94 33.95 C 101.12 32.92 102.80 30.19 102.27 28.09 C 104.88 27.89 107.50 27.88 110.11 27.73 M 104.31 28.88 C 104.78 32.22 107.04 27.06 104.31 28.88 Z" />
<path fill="#959da2" opacity="1.00" d=" M 136.89 27.65 C 141.36 27.60 145.85 27.38 150.30 27.85 C 150.32 28.13 150.36 28.70 150.37 28.99 C 150.51 31.64 150.49 34.30 150.26 36.94 C 148.47 34.59 149.78 31.26 149.37 28.53 C 148.59 28.55 147.04 28.60 146.27 28.62 C 145.35 30.99 149.35 35.53 145.27 36.00 C 145.55 35.55 146.11 34.64 146.39 34.18 C 145.63 32.29 145.16 30.31 145.15 28.26 L 143.87 28.53 C 141.26 28.68 142.87 32.27 142.29 34.06 C 141.67 32.69 140.16 32.42 138.94 31.85 C 139.19 32.46 139.69 33.67 139.94 34.27 C 138.48 34.07 138.21 32.86 138.08 31.63 C 141.35 30.44 138.09 28.84 136.89 27.65 M 141.23 31.15 C 142.31 30.34 142.25 29.50 141.06 28.61 C 139.99 29.38 140.04 30.22 141.23 31.15 Z" />
<path fill="#959da2" opacity="1.00" d=" M 71.08 33.74 C 74.10 34.93 76.12 37.60 78.18 39.98 C 80.33 42.70 82.62 45.76 82.37 49.43 C 81.46 50.41 80.58 51.42 79.65 52.38 C 77.15 52.89 74.61 53.09 72.07 53.27 C 71.77 51.51 71.56 49.72 70.86 48.07 C 68.17 44.79 71.24 41.17 71.59 37.62 C 71.38 36.33 71.22 35.04 71.08 33.74 M 73.20 38.34 C 72.60 39.57 73.65 41.45 74.97 41.68 C 75.21 43.00 76.15 44.33 77.41 44.84 C 77.42 46.70 77.97 48.49 78.38 50.28 C 80.22 48.41 79.49 45.88 78.88 43.64 L 78.01 44.33 C 77.85 42.98 76.87 41.59 75.59 41.09 C 75.91 39.81 74.59 37.91 73.20 38.34 Z" />
<path fill="#959da2" opacity="1.00" d=" M 202.07 35.50 C 203.47 35.10 203.94 35.58 203.48 36.95 C 202.06 37.37 201.59 36.89 202.07 35.50 Z" />
<path fill="#959da2" opacity="1.00" d=" M 46.90 37.56 C 47.88 37.91 48.81 37.81 49.66 37.26 C 51.17 38.04 52.66 38.85 54.17 39.65 C 54.42 37.45 56.57 37.54 58.18 37.14 C 57.10 37.51 56.03 37.88 54.95 38.24 C 54.94 39.83 54.94 41.41 54.96 43.00 C 53.66 39.27 49.69 39.13 46.37 39.34 C 46.50 38.89 46.76 38.00 46.90 37.56 Z" />
<path fill="#959da2" opacity="1.00" d=" M 59.81 37.14 C 62.28 37.31 64.75 37.46 67.22 37.60 C 67.17 39.80 67.25 42.09 66.21 44.11 C 66.57 42.15 66.78 40.16 67.00 38.18 C 64.59 37.90 62.18 37.63 59.81 37.14 Z" />
<path fill="#959da2" opacity="1.00" d=" M 60.03 47.61 C 60.42 49.11 60.81 50.60 61.19 52.11 C 61.72 51.41 62.24 50.72 62.77 50.03 C 62.69 50.61 62.54 51.77 62.47 52.35 C 62.04 52.31 61.19 52.24 60.76 52.20 C 60.40 50.69 60.13 49.16 60.03 47.61 Z" />
</g>
<g id="#0f5c98f6">
<path fill="#0f5c98" opacity="0.96" d=" M 63.31 22.55 C 64.97 23.63 66.61 24.75 68.09 26.06 C 69.26 27.16 70.39 28.42 70.01 30.18 C 69.59 30.14 68.75 30.06 68.32 30.02 L 67.18 30.21 C 66.31 28.88 65.37 27.59 64.73 26.13 C 64.23 24.95 63.75 23.75 63.31 22.55 Z" />
</g>
<g id="#395b77a2">
<path fill="#395b77" opacity="0.64" d=" M 179.03 24.95 C 181.08 24.17 183.62 23.58 185.33 25.45 L 184.95 26.72 C 183.59 25.96 181.89 25.78 180.46 26.46 L 180.41 26.98 C 180.06 30.04 179.85 33.10 179.66 36.17 C 179.60 36.46 179.49 37.04 179.44 37.32 C 179.22 33.22 177.89 28.99 179.03 24.95 Z" />
</g>
<g id="#005497ff">
<path fill="#005497" opacity="1.00" d=" M 50.14 25.14 C 50.57 25.13 51.43 25.11 51.85 25.11 C 51.57 26.21 51.52 27.34 51.70 28.47 L 51.81 29.98 C 51.58 30.45 51.11 31.38 50.88 31.85 C 50.88 32.24 50.88 33.03 50.88 33.42 C 50.46 33.57 49.61 33.87 49.19 34.02 C 48.76 34.42 47.90 35.21 47.48 35.61 C 47.33 36.10 47.04 37.07 46.90 37.56 C 46.76 38.00 46.50 38.89 46.37 39.34 C 45.03 38.04 43.64 36.77 41.96 35.92 L 41.42 34.70 C 41.40 34.65 41.36 34.53 41.34 34.48 L 41.18 32.96 C 42.33 32.26 42.42 30.76 41.39 29.90 C 41.14 29.30 40.63 28.09 40.38 27.48 C 41.52 25.64 43.58 25.31 45.58 25.67 C 46.23 26.11 47.54 27.00 48.20 27.44 C 48.23 27.46 48.30 27.51 48.33 27.53 L 48.38 27.42 L 48.99 26.01 C 49.27 25.79 49.85 25.36 50.14 25.14 Z" />
</g>
<g id="#4a687ea2">
<path fill="#4a687e" opacity="0.64" d=" M 48.20 27.44 L 48.38 27.42 L 48.33 27.53 C 48.30 27.51 48.23 27.46 48.20 27.44 Z" />
</g>
<g id="#e0e4e6ff">
<path fill="#e0e4e6" opacity="1.00" d=" M 100.78 28.20 C 103.69 27.17 107.10 27.05 110.11 27.73 C 107.50 27.88 104.88 27.89 102.27 28.09 L 100.78 28.20 Z" />
<path fill="#e0e4e6" opacity="1.00" d=" M 25.30 29.11 C 27.79 31.67 30.37 34.14 32.96 36.60 C 30.10 34.45 27.41 32.02 25.30 29.11 Z" />
<path fill="#e0e4e6" opacity="1.00" d=" M 49.19 34.02 C 49.61 33.87 50.46 33.57 50.88 33.42 C 51.66 34.81 54.05 34.24 54.57 35.38 C 52.83 36.02 50.05 35.99 49.19 34.02 Z" />
<path fill="#e0e4e6" opacity="1.00" d=" M 50.95 45.40 C 53.05 46.81 55.23 48.12 57.16 49.77 C 55.01 49.22 52.91 48.49 50.85 47.68 L 51.50 47.56 L 52.72 47.34 C 52.28 46.86 51.39 45.88 50.95 45.40 Z" />
<path fill="#e0e4e6" opacity="1.00" d=" M 70.86 48.07 C 71.56 49.72 71.77 51.51 72.07 53.27 C 74.61 53.09 77.15 52.89 79.65 52.38 C 77.06 53.68 74.02 53.47 71.22 53.75 C 71.09 51.86 70.99 49.96 70.86 48.07 Z" />
<path fill="#e0e4e6" opacity="1.00" d=" M 25.80 53.03 C 28.08 50.80 31.26 50.12 34.16 49.10 C 36.84 48.16 40.12 47.95 42.34 50.02 C 41.90 51.71 41.46 53.41 41.01 55.10 C 37.28 55.00 33.56 54.58 29.84 54.27 L 28.98 54.20 C 28.19 53.90 26.60 53.32 25.80 53.03 Z" />
</g>
<g id="#41505c6f">
<path fill="#41505c" opacity="0.44" d=" M 150.26 27.21 C 157.16 27.05 164.05 27.06 170.95 27.15 C 170.96 27.66 170.99 28.68 171.01 29.19 C 170.35 29.07 169.02 28.84 168.36 28.73 C 167.71 28.42 167.03 28.25 166.32 28.22 L 166.07 29.03 L 165.51 27.97 C 165.06 28.14 164.14 28.47 163.69 28.63 C 163.07 28.61 161.82 28.57 161.20 28.55 C 160.54 28.33 159.21 27.88 158.55 27.66 C 158.72 28.43 159.07 29.99 159.24 30.76 L 158.47 30.41 C 158.09 30.20 157.32 29.80 156.93 29.60 C 156.11 29.15 155.28 28.73 154.43 28.33 C 153.51 28.30 152.60 28.31 151.68 28.39 L 150.37 28.99 C 150.36 28.70 150.32 28.13 150.30 27.85 L 150.26 27.21 Z" />
</g>
<g id="#3e6e94ce">
<path fill="#3e6e94" opacity="0.81" d=" M 90.57 27.88 L 92.25 28.05 C 92.21 30.55 92.04 33.05 91.65 35.53 C 90.34 33.69 88.20 33.05 86.15 32.44 C 86.82 30.94 87.78 29.50 89.68 29.52 C 89.85 29.76 90.19 30.23 90.36 30.47 C 89.80 30.76 88.67 31.35 88.10 31.64 C 88.94 32.28 89.89 32.60 90.95 32.61 C 90.92 32.23 90.87 31.48 90.84 31.10 C 90.78 30.29 90.64 28.68 90.57 27.88 Z" />
</g>
<g id="#7e7e7f81">
<path fill="#7e7e7f" opacity="0.51" d=" M 92.25 28.05 C 92.54 28.08 93.13 28.15 93.42 28.18 C 93.92 28.50 94.91 29.15 95.41 29.47 C 95.13 31.59 94.92 33.72 94.96 35.86 C 94.83 33.40 95.05 30.62 92.62 29.17 C 92.06 31.50 93.32 34.52 91.52 36.49 L 91.65 35.53 C 92.04 33.05 92.21 30.55 92.25 28.05 Z" />
<path fill="#7e7e7f" opacity="0.51" d=" M 42.80 43.15 C 45.37 44.33 47.85 45.69 50.28 47.13 C 47.62 46.17 44.98 44.99 42.80 43.15 Z" />
<path fill="#7e7e7f" opacity="0.51" d=" M 34.19 47.34 C 37.09 45.51 40.96 46.20 43.45 48.42 C 46.79 51.35 50.97 52.88 55.15 54.16 C 52.36 57.18 47.59 54.91 44.01 55.94 C 39.23 57.46 34.34 55.98 29.84 54.27 C 33.56 54.58 37.28 55.00 41.01 55.10 C 44.65 55.26 48.31 55.41 51.94 54.90 C 49.07 52.58 44.98 52.72 42.34 50.02 C 40.12 47.95 36.84 48.16 34.16 49.10 C 31.26 50.12 28.08 50.80 25.80 53.03 C 25.50 52.40 25.25 51.75 25.05 51.08 C 27.53 48.69 31.36 49.15 34.19 47.34 Z" />
</g>
<g id="#3c76a5ed">
<path fill="#3c76a5" opacity="0.93" d=" M 93.42 28.18 C 94.11 28.23 95.49 28.32 96.18 28.36 C 96.05 31.27 96.10 34.19 95.69 37.08 C 95.51 36.78 95.14 36.17 94.96 35.86 C 94.92 33.72 95.13 31.59 95.41 29.47 C 94.91 29.15 93.92 28.50 93.42 28.18 Z" />
</g>
<g id="#406b8ec4">
<path fill="#406b8e" opacity="0.77" d=" M 98.97 28.33 C 100.90 28.37 100.10 31.56 98.37 31.13 C 97.96 30.17 98.14 29.02 98.97 28.33 Z" />
</g>
<g id="#296493dc">
<path fill="#296493" opacity="0.86" d=" M 123.84 28.10 C 125.46 28.06 127.09 28.04 128.72 28.03 C 128.25 28.39 127.31 29.10 126.84 29.45 C 126.73 29.54 126.51 29.71 126.40 29.80 C 125.29 30.59 124.07 31.15 122.74 31.47 L 123.75 29.41 L 123.86 30.06 C 123.85 29.57 123.84 28.59 123.84 28.10 Z" />
</g>
<g id="#365b78a6">
<path fill="#365b78" opacity="0.65" d=" M 151.68 28.39 C 152.60 28.31 153.51 28.30 154.43 28.33 C 152.62 30.17 153.04 32.78 153.02 35.11 C 154.38 34.70 155.74 34.28 157.11 33.86 C 157.16 34.39 157.26 35.44 157.30 35.97 C 155.88 36.00 154.33 36.88 152.95 36.28 C 150.98 34.14 151.68 31.00 151.68 28.39 Z" />
</g>
<g id="#3f6480ad">
<path fill="#3f6480" opacity="0.68" d=" M 158.55 27.66 C 159.21 27.88 160.54 28.33 161.20 28.55 C 161.03 31.13 160.95 33.71 160.88 36.29 C 160.02 35.49 159.20 34.65 158.28 33.93 C 157.05 33.38 155.82 32.85 154.58 32.35 C 155.30 31.38 156.09 30.47 156.93 29.60 C 157.32 29.80 158.09 30.20 158.47 30.41 C 158.19 30.72 157.61 31.35 157.32 31.67 C 157.99 33.67 160.98 32.72 159.24 30.76 C 159.07 29.99 158.72 28.43 158.55 27.66 Z" />
</g>
<g id="#3b5f7ca9">
<path fill="#3b5f7c" opacity="0.66" d=" M 163.69 28.63 C 164.14 28.47 165.06 28.14 165.51 27.97 L 166.07 29.03 C 166.87 30.94 168.61 32.91 167.20 34.99 C 164.15 36.33 161.81 33.20 161.84 30.44 C 163.38 31.28 165.20 35.99 166.74 32.84 C 165.40 31.72 163.22 30.83 163.69 28.63 Z" />
</g>
<g id="#3a668ac0">
<path fill="#3a668a" opacity="0.75" d=" M 166.32 28.22 C 167.03 28.25 167.71 28.42 168.36 28.73 C 168.78 29.34 169.60 30.55 170.02 31.16 C 170.01 32.92 170.02 34.68 169.89 36.44 L 169.34 35.63 C 169.08 32.89 168.16 30.31 166.32 28.22 Z" />
</g>
<g id="#3d6382b1">
<path fill="#3d6382" opacity="0.69" d=" M 181.60 28.53 C 182.67 28.47 183.73 28.43 184.80 28.38 C 184.33 29.55 185.13 32.29 186.73 31.60 C 186.97 30.30 186.55 29.22 185.47 28.35 C 186.43 28.23 187.33 28.36 188.19 28.75 C 188.10 31.26 187.94 33.78 187.76 36.29 C 186.75 35.47 186.31 34.25 185.86 33.10 C 184.10 34.40 180.93 34.28 182.12 31.36 C 182.56 31.15 183.45 30.72 183.90 30.50 C 183.13 29.84 182.37 29.18 181.60 28.53 M 183.27 32.30 C 183.79 32.83 183.79 32.83 183.27 32.30 Z" />
</g>
<g id="#396181b2">
<path fill="#396181" opacity="0.70" d=" M 190.09 28.03 L 190.39 27.22 C 195.37 28.12 200.48 27.44 205.42 28.56 C 205.32 29.41 205.12 31.11 205.01 31.96 C 206.01 31.16 206.34 30.05 206.01 28.64 C 206.30 28.47 206.89 28.11 207.18 27.94 C 207.12 30.54 207.06 33.16 207.37 35.76 L 207.44 36.49 C 206.17 35.48 205.52 33.51 203.82 33.11 C 203.07 32.52 201.08 32.95 201.23 31.60 C 201.93 31.29 203.34 30.65 204.05 30.34 C 202.47 27.89 198.96 28.87 196.56 29.17 L 195.99 29.28 C 195.48 30.58 196.59 33.00 197.95 31.26 L 198.95 30.43 C 200.14 32.24 200.23 34.34 198.92 36.12 C 197.40 35.82 195.32 36.56 194.32 34.98 C 195.21 34.99 196.99 35.00 197.88 35.00 C 198.22 34.48 198.91 33.42 199.25 32.90 C 197.90 32.92 196.56 32.97 195.21 33.03 C 195.08 31.63 194.96 30.22 194.85 28.82 C 193.57 28.84 192.30 28.86 191.03 28.88 C 191.02 31.39 191.01 33.90 191.00 36.42 L 189.92 36.28 C 190.04 33.53 189.95 30.78 190.09 28.03 Z" />
</g>
<g id="#4d617088">
<path fill="#4d6170" opacity="0.53" d=" M 109.96 28.67 C 110.49 28.66 111.54 28.64 112.06 28.63 C 112.50 31.40 112.25 34.20 111.63 36.92 C 108.49 35.69 110.57 31.27 109.96 28.67 Z" />
</g>
<g id="#2426272a">
<path fill="#242627" opacity="0.16" d=" M 126.40 29.80 C 126.51 29.71 126.73 29.54 126.84 29.45 C 126.73 29.54 126.51 29.71 126.40 29.80 Z" />
</g>
<g id="#0a0b0b0c">
<path fill="#0a0b0b" opacity="0.05" d=" M 141.23 31.15 C 140.04 30.22 139.99 29.38 141.06 28.61 C 142.25 29.50 142.31 30.34 141.23 31.15 Z" />
</g>
<g id="#3b47505f">
<path fill="#3b4750" opacity="0.37" d=" M 142.29 34.06 C 142.87 32.27 141.26 28.68 143.87 28.53 C 143.36 30.99 145.45 35.56 142.07 36.30 C 142.13 35.74 142.24 34.62 142.29 34.06 Z" />
</g>
<g id="#0b0c0c0d">
<path fill="#0b0c0c" opacity="0.05" d=" M 154.43 28.33 C 155.28 28.73 156.11 29.15 156.93 29.60 C 156.09 30.47 155.30 31.38 154.58 32.35 C 155.82 32.85 157.05 33.38 158.28 33.93 C 158.03 34.44 157.55 35.46 157.30 35.97 C 157.26 35.44 157.16 34.39 157.11 33.86 C 155.74 34.28 154.38 34.70 153.02 35.11 C 153.04 32.78 152.62 30.17 154.43 28.33 Z" />
</g>
<g id="#2b30343a">
<path fill="#2b3034" opacity="0.23" d=" M 166.07 29.03 L 166.32 28.22 C 168.16 30.31 169.08 32.89 169.34 35.63 C 168.80 35.47 167.73 35.15 167.20 34.99 C 168.61 32.91 166.87 30.94 166.07 29.03 Z" />
</g>
<g id="#1e202124">
<path fill="#1e2021" opacity="0.14" d=" M 195.99 29.28 L 196.56 29.17 C 196.90 29.69 197.60 30.73 197.95 31.26 C 196.59 33.00 195.48 30.58 195.99 29.28 Z" />
</g>
<g id="#3e749bda">
<path fill="#3e749b" opacity="0.85" d=" M 41.39 29.90 C 42.42 30.76 42.33 32.26 41.18 32.96 C 41.23 32.20 41.34 30.67 41.39 29.90 Z" />
</g>
<g id="#37404753">
<path fill="#374047" opacity="0.33" d=" M 50.88 31.85 C 51.11 31.38 51.58 30.45 51.81 29.98 L 52.26 30.80 L 51.78 31.75 L 50.88 31.85 Z" />
</g>
<g id="#587a93bc">
<path fill="#587a93" opacity="0.74" d=" M 68.32 30.02 C 68.75 30.06 69.59 30.14 70.01 30.18 C 69.26 31.61 68.69 31.56 68.32 30.02 Z" />
</g>
<g id="#14151517">
<path fill="#141515" opacity="0.09" d=" M 88.10 31.64 C 88.67 31.35 89.80 30.76 90.36 30.47 L 90.84 31.10 C 90.87 31.48 90.92 32.23 90.95 32.61 C 89.89 32.60 88.94 32.28 88.10 31.64 Z" />
</g>
<g id="#2f33363b">
<path fill="#2f3336" opacity="0.23" d=" M 102.95 30.65 C 104.29 30.70 105.62 30.75 106.96 30.80 C 107.04 32.36 107.10 33.93 107.28 35.49 L 106.33 35.78 C 106.29 34.49 106.24 33.20 106.19 31.91 C 105.57 32.22 104.33 32.86 103.71 33.18 C 103.52 32.55 103.14 31.28 102.95 30.65 Z" />
</g>
<g id="#1c202226">
<path fill="#1c2022" opacity="0.15" d=" M 157.32 31.67 C 157.61 31.35 158.19 30.72 158.47 30.41 L 159.24 30.76 C 160.98 32.72 157.99 33.67 157.32 31.67 Z" />
</g>
<g id="#405d759a">
<path fill="#405d75" opacity="0.60" d=" M 192.54 31.07 C 193.71 31.08 194.28 31.78 194.24 33.17 L 193.93 33.80 C 192.63 34.14 191.84 31.98 192.54 31.07 Z" />
</g>
<g id="#3034373d">
<path fill="#303437" opacity="0.24" d=" M 183.27 32.30 C 183.79 32.83 183.79 32.83 183.27 32.30 Z" />
</g>
<g id="#1b232832">
<path fill="#1b2328" opacity="0.20" d=" M 194.24 33.17 L 195.21 33.03 C 196.56 32.97 197.90 32.92 199.25 32.90 C 198.91 33.42 198.22 34.48 197.88 35.00 C 196.99 35.00 195.21 34.99 194.32 34.98 L 193.37 34.97 L 193.93 33.80 L 194.24 33.17 Z" />
</g>
<g id="#476c87b3">
<path fill="#476c87" opacity="0.70" d=" M 41.34 34.48 C 41.36 34.53 41.40 34.65 41.42 34.70 C 41.40 34.65 41.36 34.53 41.34 34.48 Z" />
</g>
<g id="#005395fd">
<path fill="#005395" opacity="1.00" d=" M 58.18 37.14 L 58.81 36.93 L 59.81 37.14 C 62.18 37.63 64.59 37.90 67.00 38.18 C 66.78 40.16 66.57 42.15 66.21 44.11 L 65.63 45.50 C 65.60 45.56 65.55 45.66 65.53 45.71 C 64.73 47.22 63.81 48.67 62.77 50.03 C 62.24 50.72 61.72 51.41 61.19 52.11 C 60.81 50.60 60.42 49.11 60.03 47.61 C 59.94 47.25 59.76 46.52 59.67 46.15 C 58.64 45.68 57.61 45.20 56.57 44.72 C 56.52 44.70 56.40 44.64 56.34 44.61 L 54.96 43.97 L 54.96 43.00 C 54.94 41.41 54.94 39.83 54.95 38.24 C 56.03 37.88 57.10 37.51 58.18 37.14 Z" />
</g>
<g id="#bdc1c2e5">
<path fill="#bdc1c2" opacity="0.90" d=" M 73.20 38.34 C 74.59 37.91 75.91 39.81 75.59 41.09 C 75.44 41.24 75.13 41.53 74.97 41.68 C 73.65 41.45 72.60 39.57 73.20 38.34 Z" />
</g>
<g id="#9c9d9eab">
<path fill="#9c9d9e" opacity="0.67" d=" M 74.97 41.68 C 75.13 41.53 75.44 41.24 75.59 41.09 C 76.87 41.59 77.85 42.98 78.01 44.33 C 77.86 44.46 77.56 44.72 77.41 44.84 C 76.15 44.33 75.21 43.00 74.97 41.68 Z" />
</g>
<g id="#273b4144">
<path fill="#273b41" opacity="0.27" d=" M 46.90 42.36 C 48.26 40.85 51.10 43.08 49.96 44.75 C 48.79 44.15 47.74 43.36 46.90 42.36 Z" />
</g>
<g id="#466e8dbd">
<path fill="#466e8d" opacity="0.74" d=" M 56.34 44.61 C 56.40 44.64 56.52 44.70 56.57 44.72 C 56.52 44.70 56.40 44.64 56.34 44.61 Z" />
</g>
<g id="#d7dadcfe">
<path fill="#d7dadc" opacity="1.00" d=" M 78.01 44.33 L 78.88 43.64 C 79.49 45.88 80.22 48.41 78.38 50.28 C 77.97 48.49 77.42 46.70 77.41 44.84 C 77.56 44.72 77.86 44.46 78.01 44.33 Z" />
</g>
<g id="#50627087">
<path fill="#506270" opacity="0.53" d=" M 65.53 45.71 C 65.55 45.66 65.60 45.56 65.63 45.50 C 65.60 45.56 65.55 45.66 65.53 45.71 Z" />
</g>
<g id="#c1c5c6dc">
<path fill="#c1c5c6" opacity="0.86" d=" M 42.34 50.02 C 44.98 52.72 49.07 52.58 51.94 54.90 C 48.31 55.41 44.65 55.26 41.01 55.10 C 41.46 53.41 41.90 51.71 42.34 50.02 Z" />
</g>
</svg>
